<svg width="36" height="36" viewBox="0 0 36 36" fill="none" xmlns="http://www.w3.org/2000/svg">
<path d="M30.0543 15.1462C29.3472 15.8662 28.3443 16.2776 27.3286 16.2776H25.1429L25.1043 16.3162C25.3229 17.0619 25.4515 17.859 25.4515 18.6819C25.4515 23.1305 21.8258 26.7562 17.3643 26.7562C15.2239 26.7528 13.1722 25.901 11.6587 24.3875C10.1452 22.874 9.29344 20.8223 9.29004 18.6819C9.29004 14.2205 12.9158 10.5947 17.3643 10.5947C18.1358 10.5947 18.8943 10.6976 19.6015 10.9162L19.6658 10.8519V8.6276C19.6658 7.58618 20.0643 6.62189 20.7972 5.90189L22.0186 4.68046C20.5233 4.17586 18.9554 3.91961 17.3772 3.92189C9.23862 3.92189 2.61719 10.5433 2.61719 18.669C2.61719 26.8076 9.23862 33.429 17.3772 33.429C25.5158 33.429 32.1243 26.8076 32.1243 18.669C32.1243 17.0233 31.8543 15.4162 31.3143 13.8862L30.0543 15.1462Z" fill="white"/>
<path d="M33.3063 7.23073C33.2188 6.99935 33.0671 6.79779 32.8689 6.64973C32.6708 6.50168 32.4344 6.41331 32.1878 6.39501L29.7449 6.21501L29.5649 3.77215C29.5466 3.52547 29.4582 3.28915 29.3102 3.09099C29.1621 2.89283 28.9606 2.74107 28.7292 2.65358C28.2663 2.48644 27.7263 2.60215 27.3792 2.9493L22.6092 7.7193C22.4895 7.83901 22.3948 7.98141 22.3308 8.13815C22.2668 8.2949 22.2346 8.46284 22.2363 8.63215V11.9107L19.0825 15.1044C18.5475 14.8413 17.9597 14.7028 17.3635 14.6994C15.1778 14.6994 13.3906 16.4866 13.3906 18.6723C13.3906 19.7272 13.8088 20.739 14.5535 21.4861C15.2982 22.2332 16.3086 22.6546 17.3635 22.658C19.5621 22.658 21.3492 20.8709 21.3492 18.6723C21.3447 18.0588 21.1958 17.4549 20.9146 16.9096L24.0621 13.7094H27.3278C27.6621 13.7094 27.9963 13.5809 28.2406 13.3366L32.9978 8.57944C33.1727 8.40732 33.2947 8.18875 33.3493 7.94953C33.404 7.71032 33.3891 7.46174 33.3063 7.23073Z" fill="white"/>
</svg>
