<svg width="25" height="24" viewBox="0 0 25 24" fill="none" xmlns="http://www.w3.org/2000/svg">
<path d="M22.0272 10.984V7.98027C22.0272 6.32793 20.6761 4.97656 19.0234 4.97656H18.0223V2.97398H16.0197V4.97656H12.7658V2.76582C13.2125 2.5057 13.5167 2.02661 13.5167 1.47212C13.5089 1.079 13.3472 0.704641 13.0664 0.429404C12.7856 0.154168 12.4081 0 12.0149 0C11.6217 0 11.2442 0.154168 10.9634 0.429404C10.6826 0.704641 10.5209 1.079 10.513 1.47212C10.513 2.02661 10.8173 2.5057 11.2639 2.76582V4.97656H8.01001V2.97398H6.00743V4.97656H5.0063C3.35425 4.97656 2.00258 6.32793 2.00258 7.98027V10.984C1.73958 10.984 1.47916 11.0357 1.23618 11.1363C0.993196 11.237 0.772418 11.3845 0.586454 11.5704C0.400489 11.7564 0.252982 11.9772 0.152357 12.2202C0.0517319 12.4632 -3.94334e-05 12.7236 2.25491e-08 12.9866V16.9917C-3.9446e-05 17.2547 0.051734 17.5151 0.152363 17.7581C0.252991 18.001 0.400504 18.2218 0.586472 18.4077C0.77244 18.5937 0.993221 18.7412 1.2362 18.8418C1.47918 18.9423 1.7396 18.9941 2.00258 18.994V20.9963C2.00258 22.6489 3.35425 24 5.0063 24H19.0234C20.6761 24 22.0272 22.6489 22.0272 20.9963V18.994C22.5582 18.994 23.0675 18.7831 23.4431 18.4076C23.8186 18.0321 24.0297 17.5228 24.0297 16.9917V12.9866C24.0298 12.7236 23.9781 12.4631 23.8775 12.2201C23.7768 11.9771 23.6293 11.7563 23.4434 11.5704C23.2574 11.3844 23.0366 11.2369 22.7936 11.1363C22.5506 11.0357 22.2902 10.9839 22.0272 10.984ZM6.00743 12.7361C6.00743 11.768 6.7908 10.984 7.7595 10.984C8.7282 10.984 9.51187 11.768 9.51187 12.7361C9.51187 13.7042 8.7282 14.4884 7.7595 14.4884C6.7908 14.4884 6.00743 13.7042 6.00743 12.7361ZM15.0186 19.9954H9.01115C8.74555 19.9954 8.49083 19.8899 8.30303 19.7021C8.11522 19.5143 8.00971 19.2596 8.00971 18.994C8.00971 18.7284 8.11522 18.4737 8.30303 18.2859C8.49083 18.0981 8.74555 17.9926 9.01115 17.9926H15.0186C15.2842 17.9926 15.5389 18.0981 15.7267 18.2859C15.9145 18.4737 16.02 18.7284 16.02 18.994C16.02 19.2596 15.9145 19.5143 15.7267 19.7021C15.5389 19.8899 15.2842 19.9954 15.0186 19.9954ZM16.2702 14.4884C15.3021 14.4884 14.5179 13.7042 14.5179 12.7361C14.5179 11.768 15.3021 10.984 16.2702 10.984C17.2383 10.984 18.0223 11.768 18.0223 12.7361C18.0223 13.7042 17.2383 14.4884 16.2702 14.4884Z" fill="white"/>
</svg>
