<svg width="24" height="24" viewBox="0 0 24 24" fill="none" xmlns="http://www.w3.org/2000/svg">
<path d="M10.5 11.25C11.5355 11.25 12.375 10.4105 12.375 9.375C12.375 8.33947 11.5355 7.5 10.5 7.5C9.46447 7.5 8.625 8.33947 8.625 9.375C8.625 10.4105 9.46447 11.25 10.5 11.25Z" fill="white"/>
<path d="M22.3351 16.7756C22.1322 16.0307 21.7384 15.3516 21.1925 14.8057C20.6465 14.2598 19.9675 13.8659 19.2226 13.6631C18.4519 13.4444 17.6367 13.4354 16.8614 13.6371C16.0861 13.8387 15.3786 14.2437 14.8122 14.8102C14.2457 15.3767 13.8407 16.0841 13.639 16.8595C13.4374 17.6348 13.4464 18.4499 13.6651 19.2206C13.8679 19.9655 14.2617 20.6446 14.8076 21.1905C15.3536 21.7364 16.0326 22.1303 16.7776 22.3331C17.5483 22.5518 18.3634 22.5608 19.1387 22.3591C19.914 22.1575 20.6215 21.7525 21.1879 21.186C21.7544 20.6195 22.1594 19.9121 22.3611 19.1367C22.5627 18.3614 22.5537 17.5463 22.3351 16.7756ZM19.6576 17.7806L18.1576 19.2806C18.0878 19.3509 18.0049 19.4067 17.9135 19.4448C17.8221 19.4828 17.7241 19.5024 17.6251 19.5024C17.526 19.5024 17.428 19.4828 17.3366 19.4448C17.2452 19.4067 17.1623 19.3509 17.0926 19.2806L16.3426 18.5306C16.2013 18.3894 16.122 18.1978 16.122 17.9981C16.122 17.7984 16.2013 17.6068 16.3426 17.4656C16.4838 17.3244 16.6753 17.245 16.8751 17.245C17.0748 17.245 17.2663 17.3244 17.4076 17.4656L17.6251 17.6906L18.5926 16.7156C18.7338 16.5744 18.9253 16.495 19.1251 16.495C19.3248 16.495 19.5163 16.5744 19.6576 16.7156C19.7988 16.8568 19.8781 17.0484 19.8781 17.2481C19.8781 17.4478 19.7988 17.6394 19.6576 17.7806Z" fill="white"/>
<path d="M12 12.7497H9C8.60218 12.7497 8.22064 12.9077 7.93934 13.189C7.65804 13.4703 7.5 13.8519 7.5 14.2497V14.9997C7.5 15.1986 7.42098 15.3894 7.28033 15.53C7.13968 15.6707 6.94891 15.7497 6.75 15.7497C6.55109 15.7497 6.36032 15.6707 6.21967 15.53C6.07902 15.3894 6 15.1986 6 14.9997V14.2497C6.00121 13.6531 6.18024 13.0705 6.51423 12.5762C6.84821 12.0819 7.32198 11.6984 7.875 11.4747C7.47452 10.9791 7.22251 10.3803 7.1481 9.74752C7.07368 9.11473 7.17991 8.4738 7.4545 7.89886C7.72909 7.32391 8.16083 6.83844 8.69977 6.49858C9.23871 6.15872 9.86285 5.97836 10.5 5.97836C11.1372 5.97836 11.7613 6.15872 12.3002 6.49858C12.8392 6.83844 13.2709 7.32391 13.5455 7.89886C13.8201 8.4738 13.9263 9.11473 13.8519 9.74752C13.7775 10.3803 13.5255 10.9791 13.125 11.4747C13.8248 11.7569 14.3925 12.2925 14.715 12.9747C15.4037 12.5232 16.1779 12.2182 16.9895 12.0789C17.8011 11.9395 18.6327 11.9687 19.4325 12.1647C19.47 11.7597 19.5 11.3472 19.5 10.9347V5.24968C19.4999 5.09555 19.4524 4.94517 19.3638 4.81903C19.2752 4.69288 19.15 4.59709 19.005 4.54468L10.755 1.54468C10.5902 1.48511 10.4098 1.48511 10.245 1.54468L1.995 4.54468C1.85005 4.59709 1.72476 4.69288 1.63619 4.81903C1.54762 4.94517 1.50007 5.09555 1.5 5.24968V10.9497C1.50368 13.5726 2.36663 16.1221 3.9568 18.208C5.54697 20.2939 7.77677 21.8013 10.305 22.4997C10.4319 22.5399 10.5681 22.5399 10.695 22.4997C11.5388 22.2694 12.3539 21.9449 13.125 21.5322C12.7077 20.9603 12.3977 20.3173 12.21 19.6347C11.9468 18.6741 11.927 17.663 12.1522 16.6928C12.3774 15.7226 12.8406 14.8237 13.5 14.0772C13.4575 13.71 13.2809 13.3714 13.0041 13.1264C12.7272 12.8814 12.3697 12.7472 12 12.7497Z" fill="white"/>
</svg>
