<svg width="36" height="36" viewBox="0 0 36 36" fill="none" xmlns="http://www.w3.org/2000/svg">
<g clip-path="url(#clip0_30119_106488)">
<path d="M31.5 16.3229C30.6719 16.3229 30.0001 15.6511 30.0001 14.823C30.0001 10.6155 28.362 6.66155 25.3875 3.68536C24.801 3.09895 24.801 2.15114 25.3875 1.56445C25.9739 0.978047 26.922 0.978047 27.5084 1.56445C31.0501 5.10588 32.9999 9.81464 32.9999 14.823C32.9999 15.6511 32.3281 16.3229 31.5 16.3229ZM1.49991 16.3229C0.672117 16.3229 0 15.6511 0 14.823C0 9.81464 1.95005 5.10588 5.49155 1.56445C6.07795 0.978047 7.02605 0.978047 7.61245 1.56445C8.19907 2.15114 8.19907 3.09895 7.61245 3.68536C4.63781 6.66 3.00009 10.6156 3.00009 14.823C3.00009 15.6511 2.32798 16.3229 1.49991 16.3229ZM30.5686 25.3697C28.3005 23.4525 27 20.6504 27 17.6819V13.5C27 8.22164 23.079 3.85207 18 3.12012V1.49991C18 0.67043 17.3279 0 16.5001 0C15.672 0 14.9999 0.67043 14.9999 1.49991V3.12012C9.91955 3.85207 5.99991 8.22164 5.99991 13.5V17.682C5.99991 20.6504 4.69941 23.4525 2.41812 25.3814C2.13001 25.6275 1.89873 25.9332 1.7402 26.2774C1.58168 26.6215 1.4997 26.996 1.49991 27.3749C1.49991 28.8226 2.67736 30.0001 4.12509 30.0001H28.8751C30.3225 30.0001 31.5 28.8226 31.5 27.3749C31.5 26.607 31.1655 25.8811 30.5686 25.3697ZM16.5001 36C19.2165 36 21.489 34.0634 22.0111 31.5H10.9891C11.5109 34.0634 13.7834 36 16.5001 36Z" fill="white"/>
</g>
<defs>
<clipPath id="clip0_30119_106488">
<rect width="36" height="36" fill="white"/>
</clipPath>
</defs>
</svg>
